<svg width="435" height="460" viewBox="0 0 435 460" fill="none" xmlns="http://www.w3.org/2000/svg">
<g clip-path="url(#clip0_1321_1570)">
<path d="M163.37 410.693L319.333 383.117L386.644 198.575L220.047 222.931L163.37 410.693Z" fill="url(#paint0_linear_1321_1570)"/>
<path d="M163.37 410.694L48.7135 301.429L94.752 110.465L220.047 222.931L163.37 410.694Z" fill="url(#paint1_linear_1321_1570)"/>
<path d="M163.37 410.693L319.333 383.117L386.644 198.575L220.047 222.931L163.37 410.693Z" fill="url(#paint2_linear_1321_1570)"/>
<path style="mix-blend-mode:multiply" d="M163.465 320.232C225.326 338.905 290.611 303.894 309.284 242.034C327.957 180.174 292.947 114.888 231.086 96.2153C169.226 77.5423 103.941 112.553 85.2676 174.413C66.5946 236.273 101.605 301.559 163.465 320.232Z" fill="url(#paint3_radial_1321_1570)"/>
<path style="mix-blend-mode:screen" d="M163.492 410.532C168.816 412.139 186.999 367.503 204.105 310.834C221.211 254.166 230.761 206.924 225.437 205.317C220.113 203.71 201.93 248.346 184.824 305.014C167.718 361.683 158.168 408.925 163.492 410.532Z" fill="url(#paint4_radial_1321_1570)"/>
<path style="mix-blend-mode:multiply" d="M104.388 350.66C123.152 355.327 153.032 300.13 171.128 227.373C189.223 154.617 188.681 91.8536 169.917 87.1868C151.153 82.52 121.273 137.717 103.178 210.473C85.0824 283.23 85.6243 345.993 104.388 350.66Z" fill="url(#paint5_radial_1321_1570)"/>
<path style="mix-blend-mode:multiply" d="M323.248 271.249C350.341 196.677 359.583 131.603 343.891 125.902C328.199 120.201 293.515 176.032 266.422 250.604C239.329 325.176 230.087 390.25 245.779 395.951C261.471 401.652 296.155 345.821 323.248 271.249Z" fill="url(#paint6_radial_1321_1570)"/>
<path d="M94.752 110.465L220.047 222.931L386.644 198.574L260.996 87.2764L94.752 110.465Z" fill="url(#paint7_linear_1321_1570)"/>
<path d="M94.9063 84.0007L229.562 202.969L401.158 176.445L269.327 59.6767L94.9063 84.0007Z" fill="url(#paint8_linear_1321_1570)"/>
<path d="M229.562 202.969L215.515 249.505L81.5092 128.383L94.9062 84.0005L229.562 202.969Z" fill="url(#paint9_linear_1321_1570)"/>
<path d="M229.562 202.969L215.515 249.505L387.761 220.827L401.158 176.445L229.562 202.969Z" fill="url(#paint10_linear_1321_1570)"/>
<path d="M87.4897 338.38L111.292 361.056L168.019 148.595L142.068 125.667L87.4897 338.38Z" fill="url(#paint11_linear_1321_1570)"/>
<path d="M234.214 398.161L266.588 392.443L338.442 186.135L303.96 191.468L234.214 398.161Z" fill="url(#paint12_linear_1321_1570)"/>
<path d="M338.442 186.135L217.921 66.8477L181.893 71.8705L303.96 191.468L338.442 186.135Z" fill="url(#paint13_linear_1321_1570)"/>
<path d="M306.787 92.8573L142.068 125.667L160.753 142.181L168.019 148.595L333.902 116.878L306.787 92.8573Z" fill="url(#paint14_linear_1321_1570)"/>
<path style="mix-blend-mode:multiply" d="M233.345 185.695C263.578 194.821 295.484 177.711 304.609 147.478C313.735 117.246 296.625 85.3401 266.393 76.2142C236.16 67.0884 204.254 84.1986 195.129 114.431C186.003 144.663 203.113 176.569 233.345 185.695Z" fill="url(#paint15_radial_1321_1570)"/>
<path style="mix-blend-mode:multiply" d="M187.47 185.897C217.702 195.023 249.608 177.912 258.734 147.68C267.86 117.448 250.75 85.5417 220.517 76.4159C190.285 67.29 158.379 84.4002 149.253 114.633C140.127 144.865 157.237 176.771 187.47 185.897Z" fill="url(#paint16_radial_1321_1570)"/>
<path style="mix-blend-mode:multiply" d="M269.217 210.573C299.449 219.698 331.355 202.588 340.481 172.356C349.607 142.124 332.497 110.218 302.264 101.092C272.032 91.9658 240.126 109.076 231 139.308C221.874 169.541 238.984 201.447 269.217 210.573Z" fill="url(#paint17_radial_1321_1570)"/>
<path d="M340.854 153.092L323.582 184.563C325.165 181.813 321.975 175.596 314.683 168.193C305.195 158.55 290.469 143.524 268.602 134.854C256.948 130.24 251.563 129.565 250.496 131.405L261.533 112.247C274.036 99.6529 349.432 138.205 340.854 153.092Z" fill="url(#paint18_linear_1321_1570)"/>
<path d="M256.42 141.09C246.916 131.432 246.721 126.192 268.599 134.864C290.476 143.536 305.192 158.56 314.681 168.203C327.329 181.046 327.644 190.313 312.064 184.137C296.437 177.947 269.059 153.93 256.42 141.09Z" fill="url(#paint19_linear_1321_1570)"/>
<path d="M253.327 136.699C250.534 133.182 250.829 131.997 251.088 131.657C251.615 130.949 254.357 129.897 268.359 135.45C289.987 144.015 304.479 158.742 314.065 168.477L314.225 168.64C315.887 170.333 317.361 171.989 318.627 173.573C322.562 178.531 324.2 182.692 322.911 184.434C321.702 186.054 317.839 185.734 312.297 183.539C297.379 177.626 270.908 154.896 256.869 140.641C255.445 139.198 254.249 137.866 253.327 136.699Z" fill="url(#paint20_linear_1321_1570)"/>
<path style="mix-blend-mode:multiply" d="M278.858 178.218C297.553 183.862 317.491 172.595 323.39 153.054C329.289 133.512 318.915 113.096 300.219 107.452C281.523 101.809 261.586 113.075 255.687 132.617C249.788 152.159 260.162 172.575 278.858 178.218Z" fill="url(#paint21_radial_1321_1570)"/>
<path d="M329.059 67.5538L344.898 95.3673C343.551 92.8718 337.114 92.7775 327.708 95.5268C315.453 99.0977 296.401 104.597 278.709 118.706C269.285 126.223 266.068 130.339 266.964 132.009L257.578 114.657C254.032 98.9625 321.765 54.0705 329.057 67.5634L329.059 67.5538Z" fill="url(#paint22_linear_1321_1570)"/>
<path d="M277.449 131.362C265.172 134.937 261.008 132.813 278.7 118.703C296.395 104.585 315.447 99.0855 327.699 95.5241C344.02 90.7675 351.385 94.5367 338.781 104.593C326.137 114.68 293.754 126.622 277.446 131.371L277.449 131.362Z" fill="url(#paint23_linear_1321_1570)"/>
<path d="M272.487 131.985C268.354 132.733 267.58 131.976 267.446 131.623C267.156 130.888 267.709 128.192 279.045 119.152C296.536 105.191 315.235 99.7529 327.615 96.1467L327.822 96.0838C329.965 95.4563 332.001 94.9741 333.861 94.6267C339.686 93.5648 343.743 94.0372 344.459 95.8516C345.118 97.5443 342.93 100.571 338.448 104.138C326.382 113.762 295.443 125.523 277.328 130.793C275.486 131.323 273.859 131.73 272.49 131.975L272.487 131.985Z" fill="url(#paint24_linear_1321_1570)"/>
<path style="mix-blend-mode:multiply" d="M289.657 139.936C305.643 144.761 322.69 135.128 327.734 118.419C332.777 101.71 323.907 84.2537 307.922 79.4284C291.937 74.6031 274.889 84.2365 269.846 100.945C264.802 117.654 273.672 135.111 289.657 139.936Z" fill="url(#paint25_radial_1321_1570)"/>
<path d="M339.204 100.282L342.978 135.986C342.71 132.824 336.545 129.542 326.326 127.617C313.031 125.118 292.37 121.169 269.455 126.526C257.249 129.38 252.443 131.91 252.621 134.021L250.757 111.992C253.838 94.5173 337.75 83.1615 339.204 100.282Z" fill="url(#paint26_linear_1321_1570)"/>
<path d="M263.004 138.586C249.68 136.079 246.539 131.882 269.455 126.526C292.361 121.166 313.024 125.106 326.326 127.617C344.039 130.948 349.588 138.378 333.269 142.195C316.903 146.029 280.717 141.917 263.014 138.589L263.004 138.586Z" fill="url(#paint27_linear_1321_1570)"/>
<path d="M257.972 136.744C253.674 135.446 253.246 134.304 253.259 133.879C253.284 132.999 254.936 130.573 269.615 127.138C292.263 121.837 312.565 125.657 325.997 128.186L326.223 128.234C328.545 128.673 330.708 129.19 332.652 129.777C338.711 131.606 342.433 134.088 342.362 136.26C342.294 138.287 338.932 140.218 333.131 141.579C317.51 145.231 282.798 141.668 263.139 137.969C261.141 137.596 259.405 137.187 257.979 136.756L257.972 136.744Z" fill="url(#paint28_linear_1321_1570)"/>
<path d="M155.275 97.0733L152.248 132.845C152.452 129.679 158.548 126.265 168.718 124.133C181.958 121.35 202.538 116.981 225.55 121.859C237.811 124.463 242.67 126.88 242.541 129.004L243.947 106.939C240.501 89.5299 156.366 79.9271 155.275 97.0733Z" fill="url(#paint29_linear_1321_1570)"/>
<path d="M232.247 133.793C245.508 131.007 248.569 126.749 225.547 121.868C202.526 116.987 181.955 121.359 168.716 124.142C151.074 127.842 145.684 135.386 162.079 138.862C178.522 142.353 214.615 137.496 232.247 133.793Z" fill="url(#paint30_linear_1321_1570)"/>
<path d="M237.253 131.847C241.526 130.463 241.936 129.312 241.908 128.886C241.86 128.004 240.159 125.611 225.423 122.489C202.668 117.657 182.448 121.905 169.077 124.711L168.854 124.759C166.533 125.249 164.388 125.813 162.457 126.432C156.436 128.385 152.77 130.945 152.879 133.109C152.991 135.127 156.385 136.998 162.216 138.235C177.914 141.564 212.54 137.277 232.122 133.171C234.106 132.756 235.84 132.308 237.253 131.847Z" fill="url(#paint31_linear_1321_1570)"/>
<path style="mix-blend-mode:multiply" d="M198.197 152.23C216.892 157.874 236.83 146.607 242.729 127.065C248.627 107.524 238.254 87.1073 219.558 81.4639C200.862 75.8205 180.925 87.0872 175.026 106.629C169.127 126.17 179.501 146.587 198.197 152.23Z" fill="url(#paint32_radial_1321_1570)"/>
<path d="M229.086 37.0945L199.602 42.9646C202.198 42.3905 206.218 46.8944 210.064 55.2627C215.07 66.1541 222.89 83.0549 223.757 104.302C224.217 115.618 223.276 120.431 221.54 120.816L239.622 116.8C252.945 109.655 243.135 33.9815 229.074 37.1012L229.086 37.0945Z" fill="url(#paint33_linear_1321_1570)"/>
<path d="M215.54 112.977C220.553 123.881 224.627 125.539 223.757 104.302C222.887 83.0642 215.071 66.1539 210.064 55.2625C203.392 40.7554 196.197 37.8419 196.81 52.9747C197.431 68.1516 208.874 98.4825 215.54 112.977Z" fill="url(#paint34_linear_1321_1570)"/>
<path d="M218.154 116.879C220.158 120.273 221.176 120.361 221.517 120.234C222.219 119.986 223.789 117.933 223.236 104.332C222.379 83.3287 214.735 66.7108 209.688 55.713L209.597 55.529C208.72 53.6243 207.816 51.8785 206.909 50.3511C204.08 45.5696 201.25 42.971 199.518 43.5868C197.915 44.1578 197.114 47.5721 197.328 52.9535C197.916 67.4417 208.609 96.6267 216.001 112.73C216.75 114.366 217.467 115.763 218.138 116.895L218.154 116.879Z" fill="url(#paint35_linear_1321_1570)"/>
<path style="mix-blend-mode:multiply" d="M206.98 113.956C223.348 118.896 240.803 109.032 245.968 91.9236C251.132 74.8149 242.05 56.9402 225.681 51.9994C209.313 47.0585 191.858 56.9226 186.693 74.0313C181.529 91.14 190.611 109.015 206.98 113.956Z" fill="url(#paint36_radial_1321_1570)"/>
<path d="M185.868 53.9964L162.97 81.6492C164.942 79.1631 171.893 79.8407 181.471 83.8913C193.928 89.1662 213.323 97.3082 229.448 114.449C238.035 123.58 240.639 128.346 239.323 130.007L253.064 112.689C260.166 96.4273 196.552 40.5399 185.868 53.9964Z" fill="url(#paint37_linear_1321_1570)"/>
<path d="M228.148 128.064C240.633 133.348 245.572 131.59 229.448 114.449C213.333 97.3111 193.941 89.1595 181.471 83.8913C164.874 76.8652 156.14 79.9843 167.621 92.1932C179.133 104.442 211.55 121.038 228.138 128.062L228.148 128.064Z" fill="url(#paint38_linear_1321_1570)"/>
<path d="M233.369 129.317C237.667 130.614 238.656 129.899 238.88 129.539C239.345 128.791 239.312 125.857 228.985 114.874C213.053 97.9266 194.028 89.8753 181.44 84.5504L181.225 84.4647C179.048 83.5463 176.96 82.7803 175.017 82.1937C168.957 80.3645 164.484 80.3722 163.341 82.2207C162.276 83.9469 164.008 87.4152 168.087 91.7592C179.079 103.444 209.964 119.682 228.387 127.479C230.257 128.273 231.93 128.893 233.356 129.323L233.369 129.317Z" fill="url(#paint39_linear_1321_1570)"/>
<path style="mix-blend-mode:multiply" d="M233.697 142.901C240.19 144.861 249.373 133.463 254.209 117.442C259.045 101.422 257.702 86.8464 251.209 84.8865C244.717 82.9267 235.533 94.3249 230.697 110.345C225.861 126.365 227.204 140.941 233.697 142.901Z" fill="url(#paint40_radial_1321_1570)"/>
<path style="mix-blend-mode:multiply" d="M251.906 148.397C258.398 150.357 267.582 138.959 272.418 122.939C277.254 106.918 275.91 92.3425 269.418 90.3826C262.925 88.4228 253.741 99.821 248.906 115.841C244.07 131.862 245.413 146.437 251.906 148.397Z" fill="url(#paint41_radial_1321_1570)"/>
<path d="M256.66 141.298L234.093 133.389L245.929 93.3827L269.643 99.0474L256.66 141.298Z" fill="url(#paint42_linear_1321_1570)"/>
</g>
<defs>
<linearGradient id="paint0_linear_1321_1570" x1="202.035" y1="282.602" x2="347.981" y2="326.657" gradientUnits="userSpaceOnUse">
<stop stop-color="#E85FB2"/>
<stop offset="0.96" stop-color="#8C2968"/>
</linearGradient>
<linearGradient id="paint1_linear_1321_1570" x1="56.0895" y1="238.547" x2="202.035" y2="282.602" gradientUnits="userSpaceOnUse">
<stop stop-color="#8C2968"/>
<stop offset="0.43" stop-color="#E85FB2"/>
</linearGradient>
<linearGradient id="paint2_linear_1321_1570" x1="202.035" y1="282.602" x2="347.981" y2="326.657" gradientUnits="userSpaceOnUse">
<stop stop-color="#E85FB2"/>
<stop offset="0.96" stop-color="#8C2968"/>
</linearGradient>
<radialGradient id="paint3_radial_1321_1570" cx="0" cy="0" r="1" gradientUnits="userSpaceOnUse" gradientTransform="translate(197.276 208.224) rotate(16.7968) scale(82.9401)">
<stop stop-color="#7F0047"/>
<stop offset="0.06" stop-color="#891455"/>
<stop offset="0.26" stop-color="#AC5A88"/>
<stop offset="0.45" stop-color="#C995B2"/>
<stop offset="0.63" stop-color="#E0C2D3"/>
<stop offset="0.78" stop-color="#F1E3EB"/>
<stop offset="0.91" stop-color="#FBF7F9"/>
<stop offset="1" stop-color="white"/>
</radialGradient>
<radialGradient id="paint4_radial_1321_1570" cx="0" cy="0" r="1" gradientUnits="userSpaceOnUse" gradientTransform="translate(195.862 307.674) rotate(106.797) scale(75.854 7.038)">
<stop stop-color="#FF7087"/>
<stop offset="0.07" stop-color="#D45D70"/>
<stop offset="0.16" stop-color="#A34756"/>
<stop offset="0.26" stop-color="#77343F"/>
<stop offset="0.36" stop-color="#52242B"/>
<stop offset="0.47" stop-color="#34171B"/>
<stop offset="0.58" stop-color="#1D0C0F"/>
<stop offset="0.7" stop-color="#0C0506"/>
<stop offset="0.83" stop-color="#030101"/>
<stop offset="1"/>
</radialGradient>
<radialGradient id="paint5_radial_1321_1570" cx="0" cy="0" r="1" gradientUnits="userSpaceOnUse" gradientTransform="translate(136.749 218.92) rotate(13.9668) scale(34.788 135.807)">
<stop stop-color="#7F0047"/>
<stop offset="0.06" stop-color="#891455"/>
<stop offset="0.26" stop-color="#AC5A88"/>
<stop offset="0.45" stop-color="#C995B2"/>
<stop offset="0.63" stop-color="#E0C2D3"/>
<stop offset="0.78" stop-color="#F1E3EB"/>
<stop offset="0.91" stop-color="#FBF7F9"/>
<stop offset="1" stop-color="white"/>
</radialGradient>
<radialGradient id="paint6_radial_1321_1570" cx="0" cy="0" r="1" gradientUnits="userSpaceOnUse" gradientTransform="translate(294.044 261.014) rotate(19.9668) scale(30.105 143.835)">
<stop stop-color="#7F0047"/>
<stop offset="0.06" stop-color="#891455"/>
<stop offset="0.26" stop-color="#AC5A88"/>
<stop offset="0.45" stop-color="#C995B2"/>
<stop offset="0.63" stop-color="#E0C2D3"/>
<stop offset="0.78" stop-color="#F1E3EB"/>
<stop offset="0.91" stop-color="#FBF7F9"/>
<stop offset="1" stop-color="white"/>
</radialGradient>
<linearGradient id="paint7_linear_1321_1570" x1="94.5757" y1="111.049" x2="70.0679" y2="103.651" gradientUnits="userSpaceOnUse">
<stop stop-color="#E85FB2"/>
<stop offset="0.96" stop-color="#8C2968"/>
</linearGradient>
<linearGradient id="paint8_linear_1321_1570" x1="94.7214" y1="84.6133" x2="400.973" y2="177.058" gradientUnits="userSpaceOnUse">
<stop stop-color="#E85FB2"/>
<stop offset="0.96" stop-color="#8C2968"/>
</linearGradient>
<linearGradient id="paint9_linear_1321_1570" x1="106.599" y1="187.422" x2="205.158" y2="145.536" gradientUnits="userSpaceOnUse">
<stop stop-color="#E85FB2"/>
<stop offset="0.96" stop-color="#8C2968"/>
</linearGradient>
<linearGradient id="paint10_linear_1321_1570" x1="233.371" y1="190.351" x2="383.299" y2="235.608" gradientUnits="userSpaceOnUse">
<stop stop-color="#E85FB2"/>
<stop offset="0.96" stop-color="#8C2968"/>
</linearGradient>
<linearGradient id="paint11_linear_1321_1570" x1="167.868" y1="106.913" x2="85.9082" y2="378.432" gradientUnits="userSpaceOnUse">
<stop stop-color="#FDBB46"/>
<stop offset="0.95" stop-color="#FD8946"/>
</linearGradient>
<linearGradient id="paint12_linear_1321_1570" x1="327.686" y1="155.155" x2="245.723" y2="426.684" gradientUnits="userSpaceOnUse">
<stop stop-color="#FDBB46"/>
<stop offset="0.95" stop-color="#FD8946"/>
</linearGradient>
<linearGradient id="paint13_linear_1321_1570" x1="276.166" y1="199.801" x2="230.836" y2="-0.817163" gradientUnits="userSpaceOnUse">
<stop stop-color="#FDBB46"/>
<stop offset="0.23" stop-color="#FFFF87"/>
<stop offset="0.4" stop-color="#FD8946"/>
<stop offset="0.67" stop-color="#FDBB46"/>
<stop offset="0.95" stop-color="#FD8946"/>
</linearGradient>
<linearGradient id="paint14_linear_1321_1570" x1="149.507" y1="172.965" x2="339.403" y2="62.0067" gradientUnits="userSpaceOnUse">
<stop stop-color="#FDBB46"/>
<stop offset="0.23" stop-color="#FFFF87"/>
<stop offset="0.4" stop-color="#FD8946"/>
<stop offset="0.67" stop-color="#FDBB46"/>
<stop offset="0.95" stop-color="#FD8946"/>
</linearGradient>
<radialGradient id="paint15_radial_1321_1570" cx="0" cy="0" r="1" gradientUnits="userSpaceOnUse" gradientTransform="translate(249.869 130.955) rotate(16.7968) scale(40.53 40.53)">
<stop stop-color="#8C1000"/>
<stop offset="0.06" stop-color="#952214"/>
<stop offset="0.26" stop-color="#B4645A"/>
<stop offset="0.45" stop-color="#CF9B95"/>
<stop offset="0.63" stop-color="#E3C6C2"/>
<stop offset="0.78" stop-color="#F2E5E3"/>
<stop offset="0.91" stop-color="#FBF8F7"/>
<stop offset="1" stop-color="white"/>
</radialGradient>
<radialGradient id="paint16_radial_1321_1570" cx="0" cy="0" r="1" gradientUnits="userSpaceOnUse" gradientTransform="translate(203.994 131.156) rotate(16.7968) scale(40.53 40.53)">
<stop stop-color="#8C1000"/>
<stop offset="0.06" stop-color="#952214"/>
<stop offset="0.26" stop-color="#B4645A"/>
<stop offset="0.45" stop-color="#CF9B95"/>
<stop offset="0.63" stop-color="#E3C6C2"/>
<stop offset="0.78" stop-color="#F2E5E3"/>
<stop offset="0.91" stop-color="#FBF8F7"/>
<stop offset="1" stop-color="white"/>
</radialGradient>
<radialGradient id="paint17_radial_1321_1570" cx="0" cy="0" r="1" gradientUnits="userSpaceOnUse" gradientTransform="translate(285.741 155.832) rotate(16.7968) scale(40.53 40.53)">
<stop stop-color="#8C1000"/>
<stop offset="0.06" stop-color="#952214"/>
<stop offset="0.26" stop-color="#B4645A"/>
<stop offset="0.45" stop-color="#CF9B95"/>
<stop offset="0.63" stop-color="#E3C6C2"/>
<stop offset="0.78" stop-color="#F2E5E3"/>
<stop offset="0.91" stop-color="#FBF8F7"/>
<stop offset="1" stop-color="white"/>
</radialGradient>
<linearGradient id="paint18_linear_1321_1570" x1="254.331" y1="123.498" x2="336.098" y2="163.003" gradientUnits="userSpaceOnUse">
<stop stop-color="#FDBB46"/>
<stop offset="0.95" stop-color="#FD8946"/>
</linearGradient>
<linearGradient id="paint19_linear_1321_1570" x1="310.909" y1="153.858" x2="282.153" y2="159.087" gradientUnits="userSpaceOnUse">
<stop stop-color="#FDBB46"/>
<stop offset="0.95" stop-color="#B44119"/>
</linearGradient>
<linearGradient id="paint20_linear_1321_1570" x1="261.039" y1="123.721" x2="314.523" y2="191.169" gradientUnits="userSpaceOnUse">
<stop stop-color="#FDBB46"/>
<stop offset="0.95" stop-color="#B44119"/>
</linearGradient>
<radialGradient id="paint21_radial_1321_1570" cx="0" cy="0" r="1" gradientUnits="userSpaceOnUse" gradientTransform="translate(288.831 142.636) rotate(16.7968) scale(25.0074 26.3967)">
<stop stop-color="#8C1000"/>
<stop offset="0.06" stop-color="#952214"/>
<stop offset="0.26" stop-color="#B4645A"/>
<stop offset="0.45" stop-color="#CF9B95"/>
<stop offset="0.63" stop-color="#E3C6C2"/>
<stop offset="0.78" stop-color="#F2E5E3"/>
<stop offset="0.91" stop-color="#FBF8F7"/>
<stop offset="1" stop-color="white"/>
</radialGradient>
<linearGradient id="paint22_linear_1321_1570" x1="262.016" y1="124.644" x2="334.69" y2="75.9503" gradientUnits="userSpaceOnUse">
<stop stop-color="#FDBB46"/>
<stop offset="0.95" stop-color="#FD8946"/>
</linearGradient>
<linearGradient id="paint23_linear_1321_1570" x1="314.223" y1="91.4728" x2="304.403" y2="118.321" gradientUnits="userSpaceOnUse">
<stop stop-color="#FDBB46"/>
<stop offset="0.95" stop-color="#B44119"/>
</linearGradient>
<linearGradient id="paint24_linear_1321_1570" x1="270.721" y1="119.235" x2="350.284" y2="104.772" gradientUnits="userSpaceOnUse">
<stop stop-color="#FDBB46"/>
<stop offset="0.95" stop-color="#B44119"/>
</linearGradient>
<radialGradient id="paint25_radial_1321_1570" cx="0" cy="0" r="1" gradientUnits="userSpaceOnUse" gradientTransform="translate(298.27 109.268) rotate(16.7968) scale(21.3822 22.5701)">
<stop stop-color="#8C1000"/>
<stop offset="0.06" stop-color="#952214"/>
<stop offset="0.26" stop-color="#B4645A"/>
<stop offset="0.45" stop-color="#CF9B95"/>
<stop offset="0.63" stop-color="#E3C6C2"/>
<stop offset="0.78" stop-color="#F2E5E3"/>
<stop offset="0.91" stop-color="#FBF8F7"/>
<stop offset="1" stop-color="white"/>
</radialGradient>
<linearGradient id="paint26_linear_1321_1570" x1="251.247" y1="125.305" x2="340.931" y2="111.111" gradientUnits="userSpaceOnUse">
<stop stop-color="#FDBB46"/>
<stop offset="0.95" stop-color="#FD8946"/>
</linearGradient>
<linearGradient id="paint27_linear_1321_1570" x1="315.063" y1="117.971" x2="294.421" y2="138.669" gradientUnits="userSpaceOnUse">
<stop stop-color="#FDBB46"/>
<stop offset="0.95" stop-color="#B44119"/>
</linearGradient>
<linearGradient id="paint28_linear_1321_1570" x1="256.902" y1="121.671" x2="339.31" y2="146.547" gradientUnits="userSpaceOnUse">
<stop stop-color="#FDBB46"/>
<stop offset="0.95" stop-color="#B44119"/>
</linearGradient>
<linearGradient id="paint29_linear_1321_1570" x1="243.727" y1="120.295" x2="153.758" y2="107.96" gradientUnits="userSpaceOnUse">
<stop stop-color="#FDBB46"/>
<stop offset="0.95" stop-color="#FD8946"/>
</linearGradient>
<linearGradient id="paint30_linear_1321_1570" x1="179.799" y1="114.276" x2="200.869" y2="134.538" gradientUnits="userSpaceOnUse">
<stop stop-color="#FDBB46"/>
<stop offset="0.95" stop-color="#B44119"/>
</linearGradient>
<linearGradient id="paint31_linear_1321_1570" x1="238.022" y1="116.752" x2="156.151" y2="143.342" gradientUnits="userSpaceOnUse">
<stop stop-color="#FDBB46"/>
<stop offset="0.95" stop-color="#B44119"/>
</linearGradient>
<radialGradient id="paint32_radial_1321_1570" cx="0" cy="0" r="1" gradientUnits="userSpaceOnUse" gradientTransform="translate(208.363 116.696) rotate(16.7968) scale(25.0074 26.3967)">
<stop stop-color="#8C1000"/>
<stop offset="0.06" stop-color="#952214"/>
<stop offset="0.26" stop-color="#B4645A"/>
<stop offset="0.45" stop-color="#CF9B95"/>
<stop offset="0.63" stop-color="#E3C6C2"/>
<stop offset="0.78" stop-color="#F2E5E3"/>
<stop offset="0.91" stop-color="#FBF8F7"/>
<stop offset="1" stop-color="white"/>
</radialGradient>
<linearGradient id="paint33_linear_1321_1570" x1="229.788" y1="119.769" x2="219.657" y2="38.2361" gradientUnits="userSpaceOnUse">
<stop stop-color="#FDBB46"/>
<stop offset="0.95" stop-color="#FD8946"/>
</linearGradient>
<linearGradient id="paint34_linear_1321_1570" x1="221.208" y1="62.3623" x2="208.19" y2="85.842" gradientUnits="userSpaceOnUse">
<stop stop-color="#FDBB46"/>
<stop offset="0.95" stop-color="#B44119"/>
</linearGradient>
<linearGradient id="paint35_linear_1321_1570" x1="231.663" y1="115.903" x2="192.981" y2="50.5298" gradientUnits="userSpaceOnUse">
<stop stop-color="#FDBB46"/>
<stop offset="0.95" stop-color="#B44119"/>
</linearGradient>
<radialGradient id="paint36_radial_1321_1570" cx="0" cy="0" r="1" gradientUnits="userSpaceOnUse" gradientTransform="translate(215.956 82.5908) rotate(16.7968) scale(21.8941 23.1104)">
<stop stop-color="#8C1000"/>
<stop offset="0.06" stop-color="#952214"/>
<stop offset="0.26" stop-color="#B4645A"/>
<stop offset="0.45" stop-color="#CF9B95"/>
<stop offset="0.63" stop-color="#E3C6C2"/>
<stop offset="0.78" stop-color="#F2E5E3"/>
<stop offset="0.91" stop-color="#FBF8F7"/>
<stop offset="1" stop-color="white"/>
</radialGradient>
<linearGradient id="paint37_linear_1321_1570" x1="245.295" y1="123.502" x2="178.443" y2="62.057" gradientUnits="userSpaceOnUse">
<stop stop-color="#FDBB46"/>
<stop offset="0.95" stop-color="#FD8946"/>
</linearGradient>
<linearGradient id="paint38_linear_1321_1570" x1="196.2" y1="82.0908" x2="201.933" y2="110.75" gradientUnits="userSpaceOnUse">
<stop stop-color="#FDBB46"/>
<stop offset="0.95" stop-color="#B44119"/>
</linearGradient>
<linearGradient id="paint39_linear_1321_1570" x1="242.59" y1="117.351" x2="160.182" y2="92.4756" gradientUnits="userSpaceOnUse">
<stop stop-color="#FDBB46"/>
<stop offset="0.95" stop-color="#B44119"/>
</linearGradient>
<radialGradient id="paint40_radial_1321_1570" cx="0" cy="0" r="1" gradientUnits="userSpaceOnUse" gradientTransform="translate(242.624 113.845) rotate(16.7968) scale(8.7331 21.6429)">
<stop stop-color="#8C1000"/>
<stop offset="0.06" stop-color="#952214"/>
<stop offset="0.26" stop-color="#B4645A"/>
<stop offset="0.45" stop-color="#CF9B95"/>
<stop offset="0.63" stop-color="#E3C6C2"/>
<stop offset="0.78" stop-color="#F2E5E3"/>
<stop offset="0.91" stop-color="#FBF8F7"/>
<stop offset="1" stop-color="white"/>
</radialGradient>
<radialGradient id="paint41_radial_1321_1570" cx="0" cy="0" r="1" gradientUnits="userSpaceOnUse" gradientTransform="translate(260.895 119.36) rotate(16.7968) scale(8.7331 21.6429)">
<stop stop-color="#8C1000"/>
<stop offset="0.06" stop-color="#952214"/>
<stop offset="0.26" stop-color="#B4645A"/>
<stop offset="0.45" stop-color="#CF9B95"/>
<stop offset="0.63" stop-color="#E3C6C2"/>
<stop offset="0.78" stop-color="#F2E5E3"/>
<stop offset="0.91" stop-color="#FBF8F7"/>
<stop offset="1" stop-color="white"/>
</radialGradient>
<linearGradient id="paint42_linear_1321_1570" x1="260.111" y1="88.5133" x2="244.532" y2="140.123" gradientUnits="userSpaceOnUse">
<stop stop-color="#FDBB46"/>
<stop offset="0.95" stop-color="#FD8946"/>
</linearGradient>
<clipPath id="clip0_1321_1570">
<rect width="339" height="377.63" fill="white" transform="translate(109.795 0.0737305) rotate(16.7968)"/>
</clipPath>
</defs>
</svg>
